/* XPM */
static char *_bed24ff77db4dabe223a1098efb24d1D36l18uLyyihbgO5[] = {
/* columns rows colors chars-per-pixel */
"64 64 247 2 ",
"   c #373231",
".  c #131417",
"X  c #483A35",
"o  c #49372D",
"O  c #4C413A",
"+  c #53433B",
"@  c #564B3C",
"#  c #3B3F42",
"$  c #483E46",
"%  c #3C4143",
"&  c #484547",
"*  c #5B4C44",
"=  c #5A4C4B",
"-  c #544746",
";  c #5D524B",
":  c #5C5146",
">  c #4C4C54",
",  c #584D52",
"<  c #4B5356",
"1  c #5B5458",
"2  c #63544C",
"3  c #655949",
"4  c #635553",
"5  c #655953",
"6  c #6A5D54",
"7  c #655B5A",
"8  c #6B5D5B",
"9  c #63565A",
"0  c #6C5950",
"q  c #6D625B",
"w  c #6C6356",
"e  c #73645C",
"r  c #7B6A5D",
"t  c #746858",
"y  c #7A7159",
"u  c #70684D",
"i  c #575B65",
"p  c #4F5861",
"a  c #685D63",
"s  c #5C646B",
"d  c #6D6362",
"f  c #68666A",
"g  c #726563",
"h  c #756A64",
"j  c #7B6C64",
"k  c #756B6B",
"l  c #7B6C6A",
"z  c #756667",
"x  c #7B7364",
"c  c #7D746B",
"v  c #7A756A",
"b  c #686B75",
"n  c #766E74",
"m  c #6A7479",
"M  c #7C7473",
"N  c #777678",
"B  c #84775C",
"V  c #836F56",
"C  c #816E66",
"Z  c #82736C",
"A  c #837A6C",
"S  c #867767",
"D  c #827573",
"F  c #857B74",
"G  c #8A7B74",
"H  c #847B7A",
"J  c #8A7D7A",
"K  c #857777",
"L  c #927E78",
"P  c #7F827B",
"I  c #94945C",
"U  c #9A9C5F",
"Y  c #96985B",
"T  c #8B8F53",
"R  c #A7A459",
"E  c #ACA855",
"W  c #8C8567",
"Q  c #95896A",
"!  c #9B9B64",
"~  c #92926B",
"^  c #9D9C6B",
"/  c #989766",
"(  c #8E8474",
")  c #8C827C",
"_  c #8B897B",
"`  c #948475",
"'  c #948A74",
"]  c #92847C",
"[  c #958A7C",
"{  c #9B8A7C",
"}  c #998976",
"|  c #9C9373",
" . c #9B937C",
".. c #999877",
"X. c #8E916E",
"o. c #A39D64",
"O. c #A49D6C",
"+. c #A99F6A",
"@. c #A99F65",
"#. c #A49C73",
"$. c #A3957C",
"%. c #A49C7B",
"&. c #A69B78",
"*. c #A18D7B",
"=. c #9DA26C",
"-. c #9CA163",
";. c #A4A365",
":. c #AAA466",
">. c #A5A46B",
",. c #ABA46C",
"<. c #ACA96D",
"1. c #A4A86D",
"2. c #B3AC69",
"3. c #ABA474",
"4. c #ACA972",
"5. c #ABA37C",
"6. c #A8A576",
"7. c #B3AB74",
"8. c #B3AC7B",
"9. c #B3A976",
"0. c #BAB37A",
"q. c #BAB369",
"w. c #A1965E",
"e. c #C1B978",
"r. c #777C86",
"t. c #707A8A",
"y. c #877D82",
"u. c #967B80",
"i. c #7C848C",
"p. c #7A8387",
"a. c #7C8696",
"s. c #7F9AA3",
"d. c #8D8382",
"f. c #878789",
"g. c #938584",
"h. c #958A84",
"j. c #9B8C83",
"k. c #948C8B",
"l. c #9A8D8C",
"z. c #928589",
"x. c #9C9483",
"c. c #9C938C",
"v. c #9C9A8D",
"b. c #979884",
"n. c #848B94",
"m. c #878B98",
"M. c #988E92",
"N. c #8C949C",
"B. c #879499",
"V. c #9D9392",
"C. c #979897",
"Z. c #A38E84",
"A. c #A39483",
"S. c #A59B83",
"D. c #AA9D85",
"F. c #A2948B",
"G. c #A79B8B",
"H. c #A39493",
"J. c #A49B93",
"K. c #A89C98",
"L. c #AB978D",
"P. c #9BA18D",
"I. c #9FA394",
"U. c #ADA483",
"Y. c #ADA28B",
"T. c #A8A686",
"R. c #B3AB83",
"E. c #B2A789",
"W. c #BAB488",
"Q. c #A3A294",
"!. c #A4A29B",
"~. c #ACA49C",
"^. c #ABAB9D",
"/. c #AAA593",
"(. c #B2A493",
"). c #B4AA9D",
"_. c #B4A998",
"`. c #BBB696",
"'. c #ADB196",
"]. c #8C99A5",
"[. c #949CA3",
"{. c #969AA6",
"}. c #828FA2",
"|. c #AC9FA2",
" X c #94A3AC",
".X c #9BA4AB",
"XX c #9AA4A6",
"oX c #95AAB3",
"OX c #9CABB3",
"+X c #99A7B4",
"@X c #97B3BC",
"#X c #8DA6AE",
"$X c #ADADA2",
"%X c #A4AAAE",
"&X c #A9A7A7",
"*X c #B6ABA5",
"=X c #AEB1A3",
"-X c #B7B4A8",
";X c #A4ACB3",
":X c #A8ADB7",
">X c #ABB2B5",
",X c #ABB4BB",
"<X c #A7B4BA",
"1X c #B5B8BA",
"2X c #C3BC97",
"3X c #C1B889",
"4X c #C4B9A9",
"5X c #C4BDB9",
"6X c #C3C49D",
"7X c #CBC5AF",
"8X c #9CBAC2",
"9X c #ADBCC2",
"0X c #A5BAC5",
"qX c #B3BCC3",
"wX c #B6BAC5",
"eX c #9EC1C9",
"rX c #A8C3CC",
"tX c #BAC5CC",
"yX c #B7C4C9",
"uX c #AACAD3",
"iX c #BCCBD2",
"pX c #B6CAD5",
"aX c #B4D3DC",
"sX c #B9DBE4",
"dX c #C5C8C9",
"fX c #C5CED4",
"gX c #C5D2DA",
"hX c #CBD4D9",
"jX c #D7D8D8",
"kX c #DDD1C5",
"lX c #E1DCD6",
"zX c #CADBE2",
"xX c #D8DFE2",
"cX c #DBE2E5",
"vX c #C0E2EB",
"bX c #E2E4E3",
"nX c #ECEBEA",
"mX c #E7E8E8",
"MX c #F6F2EE",
"NX c #F4F5F3",
"BX c #FCFBF6",
"VX c #FEFFFA",
"CX c #FEFEF9",
"ZX c #FDFEFB",
"AX c #F6F9F7",
"SX c #EFF2F1",
"DX c #E5E0DF",
/* pixels */
"eXsXrX8X#X8XuXuXeXsX8XvXsXuXeX8XB.m P s.9X#XtX<X<X].;X,Xm < %XxXxXdX;X>XwX1Xn.1XdXtX&XdXjXbXNXBXCXCXCXCXCXCXCXCXCXCXZXCXZXCXZXCX",
"8XaXuXaX8XoXeXuX8X8X8XaXuXaXsX8X9Xp.m a.gXhXiXgX<X,X.XOXb s jXSXmXhX1Xf.dXdXM.hXjX1X1XdXjXbXMXAXCXCXCXCXCXCXCXCXCXCXCXCXCXZXCXZX",
"uXzXpXuX0X8XrX8Xs.s.#X8X@XuXaX8XqX9X% p.hXhXaXgX,X,X;X;X> p.AXcXdXjXdX&XdX1Xn.jXwX>XfXxXmXCXAXCXCXCXCXCXCXCXCXCXCXZXCXZXCXZXCXZX",
"0XrX8XoX8XoX0X+Xs.#X8X#XoX@X8X8XrXvXa.s iXiXzXdXiXOX<X1X. .XAXmXDXxX1XdX1X[.%XcX1XhXAXZXZXZXAXCXCXCXCXCXCXZXCXCXCXCXZXCXZXCXZXCX",
"+X@X XoXoXs.9XpX XoX0X@X+X#XoXtXtXjXiXm hXzXgXiXqX<XqXyX. ,XAXZXZXmXxXdXmX>X>X1XM.hXmXSXZXBXBXCXBXZXZXZXCXZXCXCXCXZXCXZXCXZXCXCX",
"@XqX+X].]. XzXzXoXB.;XyX@X{.rXgXyXtX9XP cXiXfXiXOXqXqX1X& &XcXSXZXnXbXXXtX%Xm f.hXCXNXSXZXMXMXnXAXAXZXCXZXZXCXCXCXCXZXCXZXCXCXZX",
"0XwX X X{.<XzXiXOXB. XtXyXOXdXtX<XtXn.B.cXuXgXiXqXqX;X[.% N.jXnXnXNXZXdXjXdXf b fXjXjXbXnXmXnXDXCXBXAXAXZXZXZXZXZXCXCXZXZXCXZXCX",
"+X+X XzXpXOX0XzX0X<XXXrXcX9XyX9XOX,XP B.fXiXOXiXiXN.,X%X  ;XhXxXZXbXZXdXnXhX%Xp.dX>XjXNXnXnXnXnXAXBXZXZXZXAXZXAXCXZXZXCXCXZXCXZX",
"+X#XqXzX9XpXoX<X<X;XXX@XiX=XoX<X<XtXp B.hX<X9XhXxX[.,X[.. %XjXbXAXZXZXjXxXbX,XC.ZXAXmXcXmXBXCXBXBXZXZXZXCXAXAXCXZXCXCXZXCXCXZXCX",
"#XoX+XsXaXzXqX+X<XoX9X<XiXyXXX9X8XP.< %X1X9X9X%X,X;X[.f.# %XdXdXNXNXbXtXZXmX{.1XAXbXbXnXAXCXBXCXCXZXNXZXZXCXCXCXCXZXZXCXZXCXCXZX",
"].rX+XpXqXpXaX+XB.].pXiXhX<XB.P.<Xp.% 1X%X<XqXXX;X[.;Xf.> C.dXxXmXnXjX&XbXjXf.dXxXbXNXZXCXMXMXZXZXAXCXZXAXCXCXNXZXZXCXZXCXCXZXCX",
"@XaX+X0X0XpXwX}.p.oXiXzXzXOX#XB.%X[.< <X<X<XyXyX;Xp.,Xn.& f.=XbXNXkX1X>XnXNXn.$XAXZXZXZXCXBXCXCXCXCXBXjX5XMXCXCXCXCXZXCXZXZXCXZX",
" XwX8XwX0XsX0Xt.t.OXyXqX>X#X>XXX<Xi.s ^.1XyXyXyXOXa.XXp.% f.p.&XSXjX-X7XhXjXp.>XAXAXAXBXCXCXBXMXBXCX5XK D DXCXCXCXZXCXCXCXZXCXZX",
"a.8X0X0X0XwX+X{.m [.tXN.B.=X%X%X1Xs B.yX%XfXqXtX%XC.C.N.& f.&XN K.nXjXdX1XdXr.-XxXbXMXCXCXCXCXCXBX*XH n 9 lXCXCXZXCXZXCXZXCXZXCX",
"}.+Xt.#X+XwX+X+Xn.N.qX[.[.>X<X1X>Xb OXjXN.yX,X,X%XN.C.,X> f.fXC.f -X1X1XdXjX%X>XlXDXmXnXMXCXCXCX5Xl D V.z lXCXBXCXZXCXZXZXZXZXZX",
"t.t.t.{.]. Xm.{.B.i.m.OX>XXXqXdX>Xp.n.hXi.XX,X XN.i.C.%Xf z.1X=XM.N N f.f.M.>XdXwXdXdXjXMXCXlX|.g u.H.g.D DXBXZXZXZXZXZXZXZXZXAX",
"t.t.t.+X+X}.y.}.b t.t.qXhX9XqXqX,Xm N.rX.X+X{.].r.a.[.>XN P &Xv.k.n.f.P N p.M.[.p.k.p.N &X~.7 4 J u.H.L.[ MXCXCXCXCXAXZXZXAXAXAX",
"y.}.t.+X}.}.{.}.s b i.;X,Xm.[.;X.Xs i.,X].{.+X+Xr.p.f.C.P _ !.b.f.n q N C.n.N C.M.f.d.k c H h D u.u.L C Y.BXCXCXCXCXZXZXAXSXAXAX",
"t.y.t.+X}.}.+X}.i m OXwX;Xn.i.[..Xf p.9Xm..X{.{.m.n.N r.B.C.v.P _ q M N k k.C.d.k.N ) ) J j.G j L L D C 7XBXMXBXCXNXAXAXAXAXAXAX",
"t.}.t.t.{.y.:X{.p t.9XgX,X.Xi.XXXXm P pX.XqXqX{.[.m.n n &Xh.f.H J M ) F d.d.k k.) v ) J Z [ F.Z.u.u.K Z.MXBXMXCXZXZXZXZXAXAXAXZX",
"}.t.t.y.+Xt.0X:Xi t.{.wX[.:Xi.{.I.s s 1XOXyX1Xm.m.{.r.r.M.n y.H.J g.( h J J j K.h h ) ] ] ] j.L.J D J 5XDXdX-XdX%X;X<XyXqX<X;X<X",
"+Xt.y.}.:Xy.:X:Xt.r.{.wXXXwXn.N.>XP < XXXX>X>Xf.y.N.y.y.M.n D H.g.` c h F h.h.h.) J G G L L h.K.M.M M -X_ ; % @     # < i < & % ",
"{.t.}.}.wX}.+X:Xs y.:XwX,XwX{.n.<Xp.< N.XX;X1XN.N f.b y.M.u.M.H.H.G 2 ) *XG e Z g Z h.J.h.Z G h.j.x w '...X...T.'.'.I.P._ X.P.'.",
"y.t.y.y.+Xu.{.:X> r.:XwXwXwX{.n.9Xf.< f.m.n.C.N i N f y.y.|.|.H.K.g.g.~.8   h ) l 4 6 K G F ( c F t y 6X7X6X7X6X6X6X6X`.6X`.6X`.",
"wXt.b y.{.N.{.{.> y.wXwX[.n.r.f b b s m b f i 1 1 1 k k.K.*XH.H.l.) M d O   7 J z M V.F z z.f.d.J h S 4X7X`.6X2XW.`.W.`.W.3XW.0.",
"{.y.b t.n b a b > a n t.f 1 1 > s 1 p f s f N N f q h.&X*X*XK.H.J 9 , d H h.k.) k.H.V.M k ) z.d.J j ` 4X2X3X3X8.0.W.W.0.0.0.0.0.",
"i a , > 1 i 1 1 i 9 a n N M M N y.n n r.n f N k M J.~._ H.H.u.K d a d z H z.d.k k k a k f z f.d.c w ' 3X3Xe.e.q.q.q.q.E E E E E ",
"$ i , , 7 f k k 9 9 l n c c h v y.H k M _ _ _ _ h.Q.~.h.g.8 = C H d.h.d.l q 8 e d z d M M f H H x 3 *.3X0.2.q.q.2.E E E E E E E ",
", a a g C z h v e w x y y v t x g j @ @ W ( ( b./.b._.v.* * z K u.l C j.h.z 6 j C J u.D d d k g t q (.`.W.7.2.0.2.2.:.E R R R R ",
"a a 0 C j g u t u u B B W W W W  .%.V u ..6.6.'.T._._.) * ) H.J l C D L F.h.G C L Z h.F.J k d M * W `.W.W.0.0.2.2.2.:.1.-.-.1.-.",
"9 0 C V V B S W W | $.&.O.#.&.O.^ #./ ! 8.5.5.5.8.T.Y.G.K.~.z.D g j.L.L *.L.Z.L L C e j.H ; = ; : S.`.W.8.0.7.2.;.:.1.1.1.1.1.1.",
"C C C S S Q 6.&.#.3.! #.>.! 7.7.,.4.,.8.4.1.8.6.U.5.'.x.h.V.K.y.J ] L L Z.L.*.L.} { e C l 6 j O c 7X2X`.0.0.:.2.;.:.1.4.4.4.1.1.",
"X.-.-.=.=.-.-.-.-.;.;.;.:.<.,.,.>.<.<.;.;.<.<.4.4.T.%.%.c.c.C.y.V.l.Z.j.] Z.Z.Z.L L V 2 e K e z 4X5X3XD.0.9.,.@.4.,.:.o.o.w.o.:.",
"Y U Y -.-.U U U -.-.;.;.;.:.;.:.>.4.4.<.:.<.<.<.7.6.5.'.G.k.K.!.V.l.l.F.F.F.Z.{ L C V 0 2 2 g Z.L.4X2XY.5.3.4.q.q.7.,.:.U I I I ",
"Y Y -.-.-.=.;.1.<.1.;.o.-.;.,.9.1.4.<.;.R o.@.O.3.%.T./.F f z.C.V.g.u.h.j.{ ` C S V 3 2 2 e L u.L 4X_.Y.8.9.7.7.,.,.4.7.,.:.:.7.",
"-.-.=.1.1.1.6.1.>.;.;.1.,.<.,.3.,.1.;.o.o.! o.O.6.R.`.b.h h y.n g ; = 4 e Z Z V V 0 @ : e G L 2 L _.(.L.R.W.7.9.8.7.7.0.0.7.7.7.",
"=.=.=.=.=.^ ^ ^ ! ^ 1.7.9.3.+.o.,.O.o.@.,.7.9.3.R.E.Y._ k y.y.i 7 &   X - 0 e e r r 6 j C l Z 2 Z.*X(.$.U.8.R.0.9.9.,.9.9.9.,.,.",
"=.P -.-./ ^ =.6.>.3.>.O.+.+.@.o.:.;.@.,.9.9.3.+.5.T.Y.) k N f a k , X o o X 2 2 t C C z 8 z l 7 l.4X(.A.%.&.3.9.3.O.O.#.5.9.5.9.",
"-.P P -.^ =.3.3.#.+.o.o.o.o.+.+.,.:.:.,.4.,.>.O.R._.'.g.n d a n 9 - & - O + * 2 6 e e * 0 l g 4 K K.F.A.E.&.#.O.8.3.3.3.9.&.3.3.",
"-.-.=.1.>.^ / ! ! / o.O.+.+.+.@.+.@.@.@.+.+.3.W.T.E.x.x n k i k f a g l g 6 0 e G e 6 6 l D 4 8 K u.K ` E.U.&.#.5.&.5.3.#.O.O.+.",
"P E E P E P E T 3.+.! @.9.9.7.7.w.@.:.+.,.#.5.8.U.T._ h 7 d f 7 , , 7 M J Z Z c C ] e 6 D l = 4 l g.C t 4XE.#.5./ #.&.&.3.3.+.R.",
"T P T T T E -.E I I I w.,.,.+.3.@.@.o.>.O.O.3.U.T.v.' v M _ k.k.n 7 = 8 D G A L Z { Z 5 0 = = a u.D 6 S 2XU.&.&.5.E.5.R.R.5.5.8.",
"T T T P -.1.-.-.T ! ! O.3.9.+.O.O.O.,.6.&.#.| ..%..._ _ g.V.V.V.k.d - - j G Z Z.Z { G 6 * * 7 K D y.q G 2XZ.&.&.5.&.5.E.5.3.5.8.",
"E T E U -.-.-.-.! >.3.>.3.5.O.^ O.*.&.&.......x.( v t v h.v.V.l.J h 1 O 6 Z j F.` { ] C g j J u.z J 6 Z (.L.U.$.| Q | &.| Q &.9.",
"Y Y -.Y Y -.-.U ^ =.=./ ^ ^ ^ ~ ..........v./.'.v.J q q k y.u.u.g d 7 + 6 D C *.{ } L S C Z D Z z z Z u.S Q `.D.%.Q *.&.| Q w.w.",
"I I I T T Y Y U / / ~ X.~ ~ X.X.X.[ h.b.v.Q.^.-X1XJ.M g a z n D 7 1 * + e L S { ` ` S C e j z g z z K j.} Q U.2X`.5.#.&.3.5.&.Q ",
"I I Y Y / U X.X.X.~ ~ X...[ ..P.c.v.J.!.!.!.&X!.&XK.M.y.n d k n 8 = + = G j.{ { { *.L Z C C Z Z z z D S $.} | E.U.U.&.&.5.5.9.+.",
"X.I X.X.=.X.=.X.X.........P.T.-X-X-X$XQ.C.C.&X&X&X:X|.z.l a z z g = + e L { Z.Z.} Z.L C Z C j C g j K.C 3 3 Q E.Q &.&.*.| O.#.5.",
"P...X.P P.b...b.b._ b.P.P.'.^.=X-X4X7X1X).c.V.~.*X|.V.l.u.a 1 g 7 2 4 e G F.F.Z.[ K.] { j.L J D x F 4X_.S B | E.E.R.W.2XR.~ / 8.",
"b.P.P.P.I.I.P.P.I.I.'.=X=X=X^.^.G.J.).4X).( D k.K.&XH.V.u.a - 4 4 q e l J l.j.u.L L ] K l J J g x F.[ 7XY.@ U.`.E.5.$.&.U.R.6.| ",
"I.'.=X=X=X=X-X1X1X-X-X-X=X^.!.'.G.D.L.4X*XD 8 Z c.V.l.u.D 9 = 4 4 g l z l l 9 - X X X   4 l 8 l e X ) -X` [ Y.E.E.U.&.#.6.8.5.6.",
"-X>X=X=X^.Q.P.$X=X-X-X-X=X^.~.Q._.L.L.2X).` 6 e J z.u.M g 9 , q l J j 8 7 = - + ; , $ X D D z M.4 . d e * G.).E.E.R.8.8.6.! =.6.",
"1X'.$X=X$Xv.b.v./.=X-X-X).=X/.x.$.U.E.L.L.L C 2 l J u.k g 9 9 a g.u.7 - = = 9 z 9 , = 9 M l y.M., & , - ; j } D.U.5.5.5.6.O.^ ^ ",
"=X=XC.I.$X=X$X-X=X-X4X*X).).J. .V *.L.E.Z.L C = 4 D l g d z z l J g.; - = - 2 9 - , - = g.l.|.H., - a 4 8 ( C W ' $.6.3.6.6.6.^ ",
"!.!.C._ c.$X~.J.).).).*X*X_.Y.A.V V *.$.} S C X * z g 6 k d.J H ] H.k 4 4 - = + = 9 = X u.k.k.M a , , 4 8 j.(.( B W ' | ..6.5.5.",
"P v.b.f.v.$XJ.G F A { ).4X).G.S.&.V V L S V 0 o - e l l h.H.h.c ] _.l * = - 9 = 9 = z - 4 8 g , , , g 8 C G.S.S.B y y Q | | ..v.",
"w h k.h.g.K.$Xx + : : r (.4XG.D.$.&.V V C V + o X 8 D V.h.c.j.) G.J.F.O * 2 * 5 ; 4 4 4 * 5 2 w 1 q q : G (.(.A.$.S t y y x W v.",
"C._ f.d.h.c.c.h O * + @ r Z.(.(.*.D.*.u * e * X = Z h.(.F.c.j.[  .G.Y.3 @ 3 : 5 2 8 6 5 2 6 6 6 3 : t A ( D.Y.D.S.$.' x w t F ) ",
"-XI.v.c.Q.F.G._ X + + X X t L ` ` Z.(.Z + e = X 8 g.H.~.x.[ _ W $.S.Y.y 3 0 2 w 2 q e 2 6 6 w 3 q 3 w '  .E.D.E.D.$.(.G.A c F d ",
"$X=X$XQ.Q.~.~.J.x 6 3 * o o 2 e V V L.F.0 0 8 e L K.(.J.j.x.%.' S.S.S.S 3 w 6 q 4 6 e 2 6 w w 2 w v w t A.`.$.D.(.{ [ } F D F k ",
"C.^.^.Q.J.Q.F.Q.K.u.u.L 2 o + * 2 * x ).D d u.g.l.|.(.` `  .Y. .A...A.` 3 3 5 q 0 8 g 4 q q e 3 w x y 6 S.).D.D.E.G.[ } x.h.d.) ",
"Q.Q.v.Q.Q.v.c.J.F.L.4X_.C 0 2 * @ - 2 F.g.H |.|.H.|.F.S S ' %.Q | S.Y.S.3 : 2 8 9 8 g 6 q w q 5 w 1 v x A.Y._.E.W %.A.[ h.[ A h ",
"P.b.b.v.b.v.[ h.j.c.|.(.L S C C e 7 1 J u.M.|.K.K.H.Z.[  .' $.| ' x.G.S.j 2 4 a 9 8 8 g 7 8 5 5 1 - t A ( x.D.%.A.S.S.| ( [ [ _ ",
"_ b.b._ c _ c x F Z u.4X4Xu.L S d.c d K z.C.M.M.d.G ) x.U.' #...' } [ { Z 4 4 8 8 g a z 6 7 1 q 7 7 q h ` G.{ %.E.' %.Y. .| v.[ "
};
