/* XPM */
static char *_11d2811a2b54f9fec65725d9266599f5eeHTz9pXZTG2JuG[] = {
/* columns rows colors chars-per-pixel */
"64 64 255 2 ",
"   c #030201",
".  c #0B0201",
"X  c #0C0A04",
"o  c #0C0D0B",
"O  c #08090A",
"+  c #140501",
"@  c #140C03",
"#  c #160C08",
"$  c #0F110C",
"%  c #12120D",
"&  c #1B1609",
"*  c #0C1214",
"=  c #0E171C",
"-  c #131513",
";  c #1A1A14",
":  c #1A1916",
">  c #110D13",
",  c #241A0B",
"<  c #231C13",
"1  c #271D19",
"2  c #1D221C",
"3  c #2B2315",
"4  c #26241B",
"5  c #2C241B",
"6  c #282619",
"7  c #332C1C",
"8  c #352819",
"9  c #3B2F1A",
"0  c #181E21",
"q  c #2D1E23",
"w  c #1D2326",
"e  c #252522",
"r  c #2C2B24",
"t  c #2A2927",
"y  c #332C23",
"u  c #332926",
"i  c #2F302B",
"p  c #3A3325",
"a  c #34332C",
"s  c #3B332B",
"d  c #383628",
"f  c #3B3531",
"g  c #3C3B33",
"h  c #393A38",
"j  c #2E3137",
"k  c #48341B",
"l  c #432E13",
"z  c #4C3C25",
"x  c #433B2C",
"c  c #4A3C2C",
"v  c #433626",
"b  c #523E25",
"n  c #453D33",
"m  c #473D37",
"M  c #3C4036",
"N  c #4B422E",
"B  c #54432C",
"V  c #58462C",
"C  c #4B4333",
"Z  c #43423B",
"A  c #4D443B",
"S  c #494839",
"D  c #534433",
"F  c #544A35",
"G  c #5C4C34",
"H  c #534B3C",
"J  c #5B4D3B",
"K  c #554637",
"L  c #5B513E",
"P  c #56503D",
"I  c #634D34",
"U  c #604D3C",
"Y  c #64533B",
"T  c #6B553C",
"R  c #6B593E",
"E  c #685237",
"W  c #6B523A",
"Q  c #4B3C41",
"!  c #4B4B43",
"~  c #4A4644",
"^  c #544D42",
"/  c #564C47",
"(  c #4E5248",
")  c #555344",
"_  c #5C5343",
"`  c #5D554B",
"'  c #5D5A4B",
"]  c #56574B",
"[  c #5C5C53",
"{  c #5B5653",
"}  c #455055",
"|  c #625543",
" . c #645945",
".. c #6C5B44",
"X. c #64564A",
"o. c #635B4C",
"O. c #6B5C4B",
"+. c #695546",
"@. c #735C44",
"#. c #735D4A",
"$. c #645D53",
"%. c #665D58",
"&. c #6C564B",
"*. c #5E6256",
"=. c #6C614D",
"-. c #67604D",
";. c #73624C",
":. c #7C644C",
">. c #786248",
",. c #656254",
"<. c #6B6353",
"1. c #6A655B",
"2. c #6D6A5C",
"3. c #65655B",
"4. c #726554",
"5. c #726955",
"6. c #7B6B54",
"7. c #746B5B",
"8. c #7B6D5B",
"9. c #786556",
"0. c #7A715D",
"q. c #695C61",
"w. c #6A6862",
"e. c #756C66",
"r. c #7C7263",
"t. c #74736B",
"y. c #7C756C",
"u. c #787769",
"i. c #7A7974",
"p. c #6D7166",
"a. c #5D6160",
"s. c #82664B",
"d. c #83664B",
"f. c #846B54",
"g. c #896E55",
"h. c #826D5A",
"j. c #856B56",
"k. c #8B725B",
"l. c #85725A",
"z. c #90785C",
"x. c #836E62",
"c. c #847562",
"v. c #8A7561",
"b. c #867863",
"n. c #8C7B64",
"m. c #837B6B",
"M. c #8D7E6A",
"N. c #83746B",
"B. c #927B64",
"V. c #927B68",
"C. c #837D72",
"Z. c #8A7B75",
"A. c #987F7A",
"S. c #8D806C",
"D. c #8F8166",
"F. c #95836B",
"G. c #9A856C",
"H. c #8C8374",
"J. c #8C857A",
"K. c #868478",
"L. c #938373",
"P. c #938B7C",
"I. c #998C7C",
"U. c #978877",
"Y. c #9B917E",
"T. c #A48A7A",
"R. c #A5917C",
"E. c #B38F7F",
"W. c #8C8985",
"Q. c #958C83",
"!. c #998D85",
"~. c #9B9484",
"^. c #9D958B",
"/. c #989589",
"(. c #9C9992",
"). c #9E9795",
"_. c #988F8F",
"`. c #A58F84",
"'. c #A49484",
"]. c #A3958B",
"[. c #A49C8D",
"{. c #AB9C8B",
"}. c #AB9986",
"|. c #B39484",
" X c #B69B89",
".X c #A49D92",
"XX c #A99B96",
"oX c #BA9E92",
"OX c #B38F83",
"+X c #A8A18C",
"@X c #B6A38C",
"#X c #A6A293",
"$X c #ABA494",
"%X c #ACA49B",
"&X c #AEA99B",
"*X c #A8A699",
"=X c #B3A493",
"-X c #BDAC94",
";X c #B3AD9D",
":X c #BDAD9C",
">X c #B8A697",
",X c #BEB19B",
"<X c #BAB29B",
"1X c #AEACA2",
"2X c #AAA7A0",
"3X c #B4ADA3",
"4X c #B8ACA8",
"5X c #AEB1A5",
"6X c #AEB6AB",
"7X c #B5B1A2",
"8X c #BCB4A4",
"9X c #B3B4AA",
"0X c #BCB4AA",
"qX c #BEB8A9",
"wX c #B5B9AD",
"eX c #BDAEB1",
"rX c #BCBBB4",
"tX c #BCBAB5",
"yX c #AC9DA0",
"uX c #C29D93",
"iX c #C5A899",
"pX c #C2B39C",
"aX c #C9B79E",
"sX c #CAA897",
"dX c #C6ABA4",
"fX c #C2B6A4",
"gX c #C2B8A6",
"hX c #CABBA4",
"jX c #C0B7A8",
"kX c #C3BAAB",
"lX c #CCBDAB",
"zX c #CCB4A5",
"xX c #D7B8AA",
"cX c #C2B5B3",
"vX c #C2BDB4",
"bX c #C8BCBB",
"nX c #D6BDB6",
"mX c #BCC1BB",
"MX c #C4C3BC",
"NX c #CBC3B7",
"BX c #D8C7B7",
"VX c #D6C6B2",
"CX c #E3D1B9",
"ZX c #CEBFC4",
"AX c #CDCECA",
"SX c #C8C9C4",
"DX c #D2CCC6",
"FX c #CDD1CC",
"GX c #D3D3CD",
"HX c #D9D3CC",
"JX c #D4D6D1",
"KX c #DBDAD3",
"LX c #CFD9D0",
"PX c #E9DACC",
"IX c #E6E2DB",
/* pixels */
"/ a.i.a.M a.} p.*XK.` x m 1.y.3.*.p.] -.' 5.<X<Xl. .-.0.P.vX0X;XpXG.G.hX+XD.-X,XfXfXgXqXkXkXkXcXkXkXkXkXlXkXkXkXjXjXjX8XjX8XjX8X",
"w.i.i.a.M ! *.*.t.w.9.%./ ^ 2.u.P ( *.*.2.u.Y.Y.D.5.=.0.m.P.;XjXpXG.G.hX@XD.<XhXgXfXgXgXjXkXkXkXkXkXkXkXkXfXkXkXjXjXjXjXjX8X8XjX",
"a.q.} } } ( W.p.K.` C _ X.` ,.2.*.] 2.( 5.u.D.+X}.S.L.{.'.r.=XNX,XF.F.hX+XD.<XpXfXfXqXgXjXkXkXcXkXkXkXkXkXkXkXkXjXjXjXjXjX8XjX8X",
"%.f t ~ ( M 3.] i.e.x.N.4. .O.' ] ( S 7 9 P -.@XlX@XoXlXfXU.=XgX-XF.D.gX+XD.<XhXfXjXgXgXkXcXkXkXkXkXkXkXkXkXkXkXjXjXgX8XjXfX8XjX",
"_.( [ p.p.! S 3.e.].nXxX`.L.c.` ] *.P '  .0.n.pXPX@X@XaXiX-XE.@X@XD.D.aX+XD.<XNXfXgXgXgXkXkXkXkXkXhXkXkXkXkXkXkXjXjXjXjX8XjX8XjX",
"2Xt.W.i.p.( M K.].dXxXuXOXdX>Xc.) ] P K.~.=X+XpXPXiXE.sXuXVX@XE.@XD.D.pXE.D.<XaXfXfXgXkXcXkXkXcXkXkXkXkXkXkXkXkXjXjXjXjXjX8XjX8X",
"SX9X9X] *.*.*.P.dXxXdXA.V. XzX:X*.M ' K.&XmX@X-XPXsX@XsXsXxXsXE.@XD.D.pXR.D.<XaXfXfXjXkXkXkXkXkXkXkXkXkXfXlXkXkXjXjXjX8XjX8X8XfX",
"bXtX*X* M p.u.u.zXdXiXuXOXoXiXiX2.7 p.0.R.+XY.+XPXaXE. XsXE.xXxXE.l.D.aX+XD.-XNXfXjXjXjXjXqXkXkXkXkXkXkXkXkXkXkXfXjXjXjXjXjX8X8X",
"*X2XK.  S i.2.Z.4XnXdXsXuXuXuXuXC.f i.t.,.I.=X+XCXhX X XuXxXsXsXpXl.D.aXY.D.-X-XaXgXgXgXkXkXcXvXkXkXkXkXkXkXkXlX8XgXjX8XjXjX8XjX",
"i.9X*.6 d *.e.4.uXnXxXxXuXuXoXdXe.{ P.C.` 2.m.<XCXVXE.uXuXOXE.OXE.l.b.aXY.b.<X<X<XhXwXgXkXkXkXkXkXlXkXkXkXkXkXkXjXjXgX8XjX8XjX8X",
"{ W.! ( M ( y.1.dXdXsXsXuXzXdX4XC.a.w.q.,.u.O.Y.CXVXG.>XsXuXOXA.R.>.l.<XY.b.aX<XgXgXgXgXcXkXkXkXkXkXkXfXkXkXkXkXkXkX8XjXjXjX8XjX",
"%.~ ( ! Z ] w.N.XX4XPXuXOX`.>XoXq.{ q.{ $.i.<.m.gXVXF.T. XE.OXv.R.R 6.-XG.D.<X<X<XgX<XgXqXkXkXcXkXkXkXkXkXkXkXkX8XjXjXjX8X8XjX8X",
"e.f Q i i [ [ w.dX4XdXA.9.x.9./ q.j Q / [ p.,.S S.<X7.6.8.#.x.j.Y.R 6.<XD.D.hX<XgX<XmXpXgXgXkXqXkXkXkXkXkXkXkXfXjXjXjX8XjXfX8X8X",
"~ Q 1 e e w.w.{ N.dXdXA.+ u , Q Q O > q a d i X P 7.x F +.+.j.A.R.R d.-XD.z.hX<X<XgX,X,XgXqXkXcXkXkXfXkXkXkXkXkXjXjXjX0XjX8X8XfX",
"Q / q j } %.q.Q y.).Z.&.+ 8 + u q O > :     X X d P 6 p O.x.x.A.R.>.6.<XY.l.<XaXgXgXgX<XqXjXkXjXkXkXkXkXkXkXkXkXjXjXjXfX0XfX0XjX",
"q.{ { ~ i./ g j A.].Z.c . 1 + q m > . O   : $ X r ] N p | h.#.j.R.>.0.<XY.D.aX<X<XgX<XmXqXjXqXjXkXkXkXkXkXkXzXkXfXjXjXjXfX8XjX8X",
"q.N.q.e.e.q.q.j t.C.J.s . 1 . m Q O O :   = *   o ! m 3 #.6.s.g.n.f.>.@Xn.M.fXhXI.L.BXfX4X9XBX*XNXNXNXkXNX=XVX{.:X:X8XjXdX8X0X8X",
"_.W.i.q.Q { t.i.u.y.i.u # q + Q { # O :   * * O   m ~ 8 ..f.d.d.z.s.>.@XB.n.pXhXM.5.~.NXjXqXqXkXqXkXNX<X8XCX0.5.pXfXzXlXNXbXvX0X",
"ZX)._.Z.! ~ [ i.i.t.1.< q q + m %.: o e   O * =   i ^ 9 U k.d.d.s.6.:.-XB.v.,XhX{.4.8.#X=X^.J.[.J.u.P.+X=XH., R.VXlXfX8XjX0X4X3X",
"eXW.yXeXi.! [ w.K.t.{ X q 1 . u / : o : O * o *   q J , V k.d.d.>.6.6.iXB.b.iXhX=X5.7.o.7.H ` ,.6 *.7.N P 9 G +XlXkXfXfX0XqXcXjX",
"yX_.tXbXW.n y.i.K.i.%.. : q . # r o $ %   = $     < n & b g.d.g.@.>.:.iXB.b.pXlXdXJ.I.<.X.C o.r.-.2.,.C =.p L.NX:XfXlXcXjX4X3X9X",
"cXeXbXbX_./ Q.K.C.K.e.& # q . . ; X o o   - O   . ; 3 + I g.d.g.>.>.>.@XB.v.pXlX:Xb.5.<.^ H ^ ,.,.<.2.P  .b.U.}.8XfXjX0XeX0XqXrX",
"eXeX4XeX^.P.^.J.i.K.y.f # e ; # ; X X     o     . , + + T g.#.g.d.>.R  Xn.M.aXlXfX8.| o._ <.1.,.2.P ,.S.7.5.L =XlXfX8XqXbXtX2X).",
"eXZXeX4Xy.!.C.K.C.K.C./ & u ; 4 e $ O         X . , + + #.g.@.s.f.>.E R.k.M.zXlX{.| O.C A X.J.S.C m.r._ N F D 0.lX8X3X0X1XC.h   ",
"cXbXcXXXW.Z.J.P.P.P.K.e.M 2 2 2 1 - i :   : X   @ . + Y g.s.g.s.g.D.V G.k.M.hXfX9.K v K H x H e.,. .=.3 | P L N =X0X3XC.u   O i ",
"cXbXcXXXU.Z.A.J.P.Z.C.K.p.M e $ e > o : % : 1 , . 1 G v.j.@.g.g.f.f.I F.l.R.lX@XJ v C <.o.C x n ` ) x C =.8.K 8 o.Q.` . o i :   ",
"bXZXcXXXQ.J.U.P.J.m.C..X/.p.] w M 2 i $ o f 5 p 1 D 9.V.j.#.s.d.:.:.6.G.>.R.pXR.v | c.7./ o.1.H , p C <.P 5.<.=.H .   ; e O O w ",
"cXbXbXXX_.!.`.`.P.K.J.1X6X(./.p.i h i a a u v 3 O.9.6.j.s.g.k.d.g.:.>.F.#.L.pXF.+ | c.<.o.e.c.u.2.5.I.7.O.5.r.7.n & ; ;   o 0   ",
"eXjX4XXX`.].].].I.H.Q.&X*X(.5XmXi.t i e i s 8 r.L.c.v.j.#.s.g.g.B.@.k f.h.L.lXl.9 U | $.P.m.u.;XP.m.gX5. .| H C ) y X $ = O * j ",
"3X4XyX`.!.!.'.!.!.P./.1X(.K.mXLXAXW.h j f a %.'.M.#.#.>.@.T W @.f.@.k :.l.F.VXS.v 4.O.r.$XQ.m.;XL -.&XH.m.U.5.5.d 3 X * - w j } ",
"cXeX3X].`.`.`.U.I.J.[.vX5X/.mXFXLXmX6Xt.$.1.O.I.h.G I +.T +.V I R >.I 6.6.v.pXn., | e.H..X[.m.7.' -.0.U.=X$XS.7.o.y 4 i = = j } ",
"DXDXcXXX].].).Q.P.J..XHXLX6XmXmXmXFXAX).1.A %.=Xc.U @.@.@.s.T @.@.:.6.#.:.M.'.;. .Y | 9.M.[.~.D.Y.+XY.-XkXS.I.'.C.u.a * w w w } ",
"tXwXcX3X^.(.*XQ._.W.mXFXtXmXFXSXFXmXMX2XP.` ;.U.>.@.W E I W @.@.z ..M.8...D.S.G 6.6.=.V B =.R.iX@XE.aXVXaXR.S.9.o.C s e > = j j ",
"3XXX0XSX9X(._.W.W.W.mXJXmXAXFXSXSXAXMX.XH.=.8.F.f.s.>.:.d.g.z.V.b.M.r.l.b.;.G =.V L R E N k R D.G.E.@X-XE.R.B.O.v 5 r i e w w = ",
"3X).1XDXDX9X(.W._._.mXJXSXFXFXAXMXAXMX^.K.5.8.B.k.g.s.s.d.g.g.k.F.0.<.r.M.Y B 6.6.Y N B I G V V d.z.G.G.D.n.z.;.z 5 , 1 w t w * ",
"cX%X2XbXHXHXrX(._.).ZXJXFXJXFXAXFXAXcX^.~.h.h.A.B.v.k.g.g.g.k.v.M.5.c.S.=.P Y L G 6.k.R l 9 B R I b I R E E R @.O.c < + = t w * ",
"NXrX3XrXKXIXDXMX2X2XAXLXJXJXFXFXFXKXcX~.].L.v.G.g.f.f.g.k.v.B.V.0.r.Y.S. . .;.| V R  .G B B B k W V E R I E @.6.;.F 3 $ 2 r 2 o ",
"eX0X9XvXDXHXHXIXmXmXFXFXJXKXFXJXSXIXvXZ.].}.L.v.j.f.f.f.g.g.k.k.;.H.S.<.=.| J =.P V B G B z B V I I I V l k I I R L 7 & ; r 2 $ ",
"%X3X*X.XcXDXGXIXFXAXJXAXFXJXAXJXSXIXrXN.`.].A.j.B.B.B.B.B.v.k.c.8.S.r.=.=.F 9 N G F V G V V G R E E E V l b E E ;.5.N & & 2 2 2 ",
".X&XP.t.*XHXKXDXKXJXJXSXAXJXSXLXbXHX%Xr.].`.x.j.:.9.s.j.g.h.x.l.0.,.7.c.5.=.P 9 p D | Y G L V B W I E E V V @.g.0.D.-.9 6 2 ; 2 ",
"3X%XQ.Q.1XNXGXMXMXMXMXMXmXqXtXtXeX9X%X].].}.M.9.6.6.:.4...#.h.9.J H 9 P -._ L P 9 z C F L ;.;.=.V G R I k B T E >.0.P , M d 6 ; ",
"qX3X.X).&XrXrX7XMXMXmXmXrXrXtXwXrX0X3XXX.X{.T.M.6.6.9...+.O.O.L 1.5.F p p N =.=.B D F G Y ;.8.6.;.R ..G k k E ;.D.l.F X 3 d M S ",
"7X8X1X*X&X9XwX;XqXwXwXwXwX9XwX9XwXrX9X*XXX=X$X}.Y.D.D.0.M.L.K y d C S p p 9 H C F F L =.=.=.=.=.;.L G I B B I ..l.0.L & 3 d M P ",
"#X&X&X&X3X0XqX9X9X9XwX6X6X9X6X9X1X9X3X*X[.$X=X$X+XD.Y.Y.=XQ.d , S N N p 7 , p C H F G  .=.Y Y ..L V G G G G U @.5.=.=.9 6 M 2 M ",
"/.*X;X&X3XwXqXwX5X5X5X5X5X5X5X5X5X6X6X*X#X&X=X;XP.D.&X<X+X,.& 7 S p 7 p 3 p N P <.) F F K G | 5.| O.| D c K @.9.#.o.<.p 3 7 2 M ",
"#X&X7X&X&X9X8X7X&X5X5X5X5X5XmX5XwXwX6X*X&X;X;X$XP.P.+X&X~.] & M & @ 6 N p -.-.' =. .L L J _  .4.0.0.+.c | &.+.U K J &.m 3 6 4 S ",
";X<X3X*X*X<X7X&X&X5X5X5X5XmXwXwXmX<X6X*X&X&X+XY.#X#X[.#X#Xp.M S d < p p p ,.7.2.F P  . . . .Y P N.4.D c &.#.K z v U O.$.y 4 5 m ",
";X7X&X#X&X9X9X&X5X&X5X<X5X5XwX6X6X5X*X#X#X*XY.u.Y.<X#X+X#Xu.] S y . 6 6 7 C <.7.x H P H J _ L D %.O.c v c c z U m O.O.1.y 1 r M ",
";X;X;X&X;X;X;X;X$X&X&X7X3X3X;X&X1X;X*X$X&X~.P.~.$X&X*X&X$X[.r.5   u 1 u $.u p _ z M P N P -.P  .<.5.C N J J &.O._ J _ &.y @ 4 a ",
";X7X;X<X3X<X;X;X&X;X:X8X8X<X7X;X=X&X&X;X;X+X~.~.~.+X[.=X;X$XP.^ . q s / m < + 5 ' F d x P P N  .5.o.x D +.&.9.#.9.X./ H 3   4 a ",
"8X8X8X7X8X8X8X8X;X;X7X8X8X7X<X3X<X[.P.J.H.K./.&X~./.~.#X;X;X$Xr.. f / f . . . & 5.' z d P F F P 5.P x K J c J K 4.O.X.$.d @ 4 d ",
"7X7X8X7X7X7X<X7X;X;X8X7X8X<X;X&X&X~.~.^.Y.Y.+X#X+X+X+X$X&X;X;XJ./ { $.# . 5 s n ' 5.P N P P  .P P N C _ c 8 c K &.X.X.%.S & 4 i ",
"<X;X<X3X<X3X3X7X&X;X;X;X;X&X$X#X+XQ.~.+X~.~.+X[.&X&X#X&X&X=X7X^.].w.m < m A m o.S 5.' F N F -.-.N 7 C  .K c K &.X.o._ ) M & 3 r ",
":X7X3X<X3X<X<X;X&X=X;X;X&X$X+X[.#X~.~.~./.Q.[.$X&X&X$X;X&X&XqX&XXX_.` m m A s o.N ' P N N d _ 0.F 9 z J L H c c X.o._ ' F 6 6 M ",
"7X7X8X7X7X<X7X8X;X;X;X;X;X$X#X{.$X$X&X7X8X=X[.$X=X*X&X<X=X*XqX<X3XcX).N.~ C H _ d P ' N d N P <.F N N N J D 1 , n m N H P 9 p F ",
"qXqX8XgXqXqXkX8X7X<X8X7X;X;X$X#X7X<X+X+X&X#X[.7X&X=X=XqX&X$X<X&X0XXX2XXXr.s ! p d ) 2.N N o.H L C F P F _ _ 8 5 1 3 @ ; 7 , M ,.",
"<X7XqXqXqXqX7X;X8X7X7X8X7X7X7X8X+X#X#X$X;X;X;X<XqX8XqX8X8XqXgXqX3X%X3XbXK._ A A A C ` x ) P _ _ z N D J K c y 5 y p p 7 < 8 C ' ",
"7X8X8X8X8X8X7X<X8X8X8X<X8X<X7X<X&X&X;X;X7X8XqXgX,XqX8XqXqXqXqXqX3X0X0X3X].5 H H H _ 1.C | H C x B G  .| m 8 v ~ A m A g 7 y F 5.",
"qXqX8X7X<X8X8X8X8X7X8X8X8X7X7X8X7X<X<X8X8XgXkXkXqXqXqXgXgXgXqXqX4XBX0X3X!.+ ~ H A ` 7.A ` S v v z B Y | D x m { ^ ^ / ^ d 9 C 2.",
"kX8X8X;X7X<X8XqX8X8X8X7X7X:X8X7X<X7X7X8X8XqXqXqXqXqXqXqXqXgXpXmX8XDX8X3X,.& A A n _ <.s H A C H N G +.Y m n x a n Q ` ' C 7 v L ",
"kXqX8X<X;X8X8XqX8X8X8X8X8X7X8X,X<X8X8X,XqX<X,X<XqXqXqXNXqXNXqX,XkXNXkX$X7 y A C x ^ o.5 ^ H H _ k E =.L C A m f f Z ( H p 8 p G ",
"gXqX8X7X8X8X8X8X8X8X8X8X8X8X8X7XqXNXmXgXNXNXNXNXNX,XqXqXgXqXgXNXNXqXNXC.3 C H n n ` o.5 ^ ^ A C z G R G H ^ / Z g Z m p 7 7 B -.",
"8XqXqXqXqX8X8X7XqX8X8X8X8X8X8X7XNXgXqXNX,XmXqXmXpXmXgXNXgXNXgXNXNX8X7XO.7 ) H H ^ $._ & A ^ C n =.R ..O._ n u e g m d ; & d L ;.",
"<X8XqXkXkXqX8X<X8XqX8X8X8X8X8X8X8XqX<XqX<X<X<X<XNXqXNX,XqXNXkXkXkXNX/.J s o.n ` X.1.A . n / H F V E 6.r._ , X : t a 6 @ & N  .R "
};
