/* XPM */
static char *c08e5d1e5368489dbacff39a8a85f3cdxfVd4Ba8zBYYsqRY[] = {
/* columns rows colors chars-per-pixel */
"64 64 139 2 ",
"   c #9F6551",
".  c #A06652",
"X  c #A46A56",
"o  c #AA6C57",
"O  c #A66D5A",
"+  c #AB6E5B",
"@  c #A7705C",
"#  c #AC715D",
"$  c #B1735E",
"%  c #AE7561",
"&  c #AF7B69",
"*  c #B27662",
"=  c #B47965",
"-  c #BB7B66",
";  c #B57D6A",
":  c #BA7E6A",
">  c #C07F69",
",  c #B5816D",
"<  c #BC826D",
"1  c #B68271",
"2  c #BD8572",
"3  c #BE8974",
"4  c #BE8D7C",
"5  c #C2836E",
"6  c #C28572",
"7  c #C88771",
"8  c #C48A75",
"9  c #CA8A76",
"0  c #C68D7A",
"q  c #CA8D7A",
"w  c #D08F7C",
"e  c #C5917C",
"r  c #CC927D",
"t  c #D1927E",
"y  c #BF9080",
"u  c #C49482",
"i  c #CC9581",
"p  c #CD9481",
"a  c #CE9480",
"s  c #CF9581",
"d  c #CD9681",
"f  c #CC9483",
"g  c #CD9483",
"h  c #CF9482",
"j  c #CE9582",
"k  c #CD9682",
"l  c #CE9783",
"z  c #CB9684",
"x  c #CD9584",
"c  c #CE9584",
"v  c #CC9785",
"b  c #CF9685",
"n  c #CF9786",
"m  c #CD9581",
"M  c #CF9883",
"N  c #CF9884",
"B  c #CD9886",
"V  c #CE9987",
"C  c #CF9B86",
"Z  c #CE9984",
"A  c #C89788",
"S  c #CC9788",
"D  c #CC9988",
"F  c #CD9A89",
"G  c #CF9A88",
"H  c #CE9B8A",
"J  c #CF9C8B",
"K  c #CE9B8A",
"L  c #D39280",
"P  c #D09583",
"I  c #D09682",
"U  c #D09783",
"Y  c #D19783",
"T  c #D19684",
"R  c #D09784",
"E  c #D29785",
"W  c #D09786",
"Q  c #D19582",
"!  c #D09984",
"~  c #D09985",
"^  c #D29884",
"/  c #D19A85",
"(  c #D19887",
")  c #D39886",
"_  c #D19A86",
"`  c #D29B86",
"'  c #D29B87",
"]  c #D49987",
"[  c #D49A86",
"{  c #D49B87",
"}  c #D59B87",
"|  c #D39985",
" . c #D89B86",
".. c #D19789",
"X. c #D19988",
"o. c #D29988",
"O. c #D49B88",
"+. c #D19C8A",
"@. c #D59C88",
"#. c #D49D88",
"$. c #D49D89",
"%. c #D69D89",
"&. c #D69D8A",
"*. c #D59E8A",
"=. c #D79E8A",
"-. c #D69F8A",
";. c #D09D8C",
":. c #D19E8D",
">. c #D29F8E",
",. c #D49C8A",
"<. c #D89F8B",
"1. c #D99E8A",
"2. c #CFA08C",
"3. c #D3A08F",
"4. c #D7A08C",
"5. c #D4A18D",
"6. c #D8A18C",
"7. c #DCA38F",
"8. c #DAA18D",
"9. c #CFA090",
"0. c #D1A091",
"q. c #D3A293",
"w. c #D4A190",
"e. c #D5A291",
"r. c #D5A495",
"t. c #D6A596",
"y. c #D7A697",
"u. c #D4A492",
"i. c #DBA592",
"p. c #D7A995",
"a. c #D9AA96",
"s. c #D8A798",
"d. c #D7A898",
"f. c #D8A999",
"g. c #D9AA9A",
"h. c #DAAB9B",
"j. c #DBAC9C",
"k. c #DCAD9D",
"l. c #DBAD9B",
/* pixels */
"N 0 % 6 > f : f ..u 4 , F i r 2 S k.0.f ; p q 0 = 6 ..0 1 X e _ ! # % u L +.; ;...r.u u f > 8 * L L 0 : 6 5.6.5.* r n T n 2 f ..",
"_ 0 % 8 > f > g L u e & C i i 1 u k.0.f = p q q = 2 c u < O r ` ! + + p u +.; ;.S q.8 8 L f 6 * L q L : 3 -.@.-.= r L _ h 2 u S ",
"o.u % 6 6 L : f g q 0 ; C i i 2 u h.t.z = q q q * 2 g 0 2 O a -.} $ # r u ;.& q...q.u u g L 6 % L f 0 : < -.,._ = i n T S 2 9 c ",
"_ 0 % 2 : q : f c u 0 & C a a 1 y h.d.G = u q q * : ..0 3 O a -.} # % r f S ; q...r.> 8 ..L 6 % L > L : 3 ,.N N % i h T f : 0 f ",
"T 0 % 2 6 0 : 0 ! e 4 & C i i 1 4 h.d.G = r q q & 2 ..u : O a -.+.* * h q c & q...r.u f ..L q # L > L : 6 :.N n # f u L u : 0 f ",
"h 0 * 6 6 0 & 6 M e e , C i i 2 y d.r.S : L q q ; 6 ..0 2 O a o.T * * T L S ; 0...q.8 u ....6 # L L L : 6 :.n p % u L L f : 6 u ",
"h 0 = 0 0 q = 6 M r e ; N i p 1 y d.q.D 1 a q q * 2 ..f 6 O n <.T * ; ..c S & ;...q.> u L g L + L f L : 6 ,.c p # f f L A : u f ",
"a q ; p q f ; 6 N r 0 ; G i i 2 y d.0.z < T q 0 % : b u 3 % +.8.r * : ,.b b & ;.0.q.4 : L g > * L L 0 : : ..p 0 # 6 f g f : 6 f ",
"u 8 O q a 0 ; 3 i i 0 & ,.+.i 1 u 9.A z 2 o.q 9 * = L u 3 % -.-.I + : o.f T ; q.S ;.u 0 g 0 > # L q w < 8 _ i a * u q L f : f u ",
"q 8 O p a q ; < i i 0 = *.,.i 2 y 9.A A 2 _ q 9 % = u 0 2 @ M _ I * : o.u ;.; 0.;.;.u 0 g > f # L q q < 3 C i i * 8 f ..0 : 8 u ",
"9 6 O p n e , , a a 0 = 5.5.Z 1 y r.F z : a q q * ; p u 2 @ a a L % : *.f S ; 9.S ..0 0 g f > % w q q 3 2 _ i i * 6 f g f : f u ",
"f 6 O r a i < 2 a i 8 % 6.5.u 1 y d.0.S ; r q r ; : T z 3 @ M n a + : o.S 0.; S ....u 0 > f f $ w 9 q < 6 _ i Z & u f L u : f 0 ",
"L 0 O 0 r i 3 < p q 8 % 4.C e , y k.t.D ; h L q ; : ..S 3 % Z i T # = +.p ;.; 9.H ;.u 8 f 6 f $ w 6 q : 6 +.a N * 0 f ..q : u f ",
"L q O 0 u Z 3 , 0 r 8 # ! M e , y k.d.G ; c q q * ; b b 2 % i p } + * n q ;.; H S 0.0 0 f q > $ w 9 f : 6 T a N * 8 f L f : 0 f ",
"q f + f N Z 1 % 8 p e * 2.r e 1 y g.t.G ; T 0 : * ; b c 3 % f L o.# * h u +.: ;.H 0.0 0 q 0 6 $ L 7 9 : 6 ..g g ; u f ..f 2 u f ",
"> 6 O f N Z & X 6 p r = M e 4 4 3 f.r.S : a 0 ; * : ..b 8 % G ..1.$ % q 0 ..1 ;.S *.u 0 f 6 0 $ 0 7 q : 6 ..g g * 0 L ..f : q q ",
": f = u 0 r 3 < e r r & ! M e 3 3 p.p.i % a 0 ; % , N i 3 % g f h $ * 0 E u 2 S ..&.f u L 8 0 = q > ..> f ..L g = u p T p 3 q h ",
"2 q = e e r 3 < r M r = ` r e 3 4 d.p.,., T a 2 % , C i 3 O b b I % % 8 E c 2 S ....0 0 u f 7 * w > ..> > 1.8 L = 6 q T q 2 q q ",
"0 q % q r r < , r _ a ; ` a r 3 u p.p.5.1 n a p = < N e 3 @ S S  .% # 6 ..I 3 S ,.,.6 0 q q 7 # L w ..> > 7.> f * 8 u T 0 < 0 0 ",
"u L % 0 r r < = a _ a ; -.a r < e 9.K K ; 0 r p , 2 ,.i 3 @ .... .+ + 2 _ L 2 f ,...6 6 f q q + w > ..> > ..u f * 0 q T 8 < 0 q ",
"` a # 0 e r , ; r _ a < -.! r 1 e K Z z = 0 r r < 3 _ p 2 O K ` ..+ o 6 T a 2 f ,.,.0 8 f q 6 + w > ..> > ..6 f % q r ! 0 : 0 e ",
"-.r # q r r , < r N a , -.a e < 4 2.G n = i r r < < _ r 2 O _ ` E # + 8 ..c 2 f ,.,.8 0 f L q + L > ..> 7 ..> f * e r _ 8 ; 8 q ",
"-.r # e e e < < 0 a r ; } I e < 0 p.e.N = I a 0 : 3 ,.i 2 O t M I # = q ,.T 2 S S ..0 0 q 7 0 $ w 6 ..> > ..9 q % e a _ 8 = 8 9 ",
"-.a # e q 8 < 6 8 a r : -.a r < 4 a.6.n = ! n 8 ; 3 +.n 2 O 2.t L * : T 7.T 8 ..c b 0 0 0 u > * w > L > 6 ..6 L # 0 r a 3 * 6 0 ",
"} r = 8 8 L : 8 p 8 h 6 } r _ < 3 e.,.e , 6.9 t , , 9 t 3 # t t L = = T r _ 1 0 ..:.f 8 f > > % q L L 7 7 I 0 8 # 0 ! a < # < 0 ",
"} r * 8 8 u < 6 1 : 6 : I a } 6 e p.5.r < t 5 9 , , t r < @ 6.r h ; * T 0 _ 2 0 ..0.> u f 8 6 + > > 6 > q  .0 < @ 6 r r < # 6 e ",
"! 0 = 3 6 L : 6 r 8 e < I a _ 3 3 5.5.r , t < 9 < , t r 3 @ t t r = * I 0 T 2 u ....0 6 6 6 q % L > 6 : q 1.8 = X 3 e r 3 * 8 r ",
"r 0 = 6 6 u : 6 1._ I < n r q : 2 N -.a , t 5 7 < 3 t r , , 6.t L = * h 0 ..: f ..0.> 4 6 0 q = ..> : * 6  .e 6 # 8 e I 6 = q I ",
"q 9 * 0 > q : 6 r r q - T q q < 4 2.6.! , q < < , < t t 5 , t t L = * r q T 2 f f ..: : 6 q w * > * * * <  .T T % 0 r ! 8 , 0 e ",
"q 8 * 6 6 q : 6 q t q - o.L h 6 3 M 5.M $ w 5 < < , t t < X t t h * * h 0 +.2 f f ..6 2 0 6 6 * + # > - 5 I r r % 8 r a 6 * 6 9 ",
"9 8 = 9 6 q : 6 Q  .E 6 <.L q 6 < e 2.t - t 9 7 , $ w t 5 X t t r = % r 0 ..3 b f ..6 6 0 6 7 * : > 6 > 8 t 8 8 % 8 0 r 6 = 6 8 ",
"0 8 = 9 6 q : 6 q L r : 7.L 9 : 4 r 4.t $ r 7 8 $ < w w < , t t L * * r 0 ..2 S f ..4 6 0 0 6 + q 6 w 6 0 @.M r % 8 e a 8 = 9 e ",
"L L = q 8 9 6 6 r r r < t t r , e p.p.t , t t 7 < < t t 7 , t t t = , q w 6., t r r e e 3 e 7 o 9 9 9 5 r t r r 3 3 t e e o 5 7 ",
"q q - u 6 8 5 6 w r t < 6.t t < e p.p.t , t 9 7 , 5 r r 5 , t 7.t * $ q e 6., 2.e e e e 7 e 7 , 9 9 e 5 r t e t , 3 t 9 e , 5 9 ",
"q L - L 6 : < 6 9 t r < t t t , e r t t , 7 9 7 < $ r 9 5 o 7.t t - = q 8 4., r r p.7 3 7 t r o r 9 e 5 e t e t , 7 t e 9 , 5 r ",
"0 L : L 6 : : 6 r r t 5 7.t t , e p.t t , 9 9 5 $ < r r 5 @ t t t $ - q 8 6.3 t t r 3 3 e t t o 9 9 e 7 t t r r , 5 t r 9 , 5 w ",
"q L ; h 5 < : 5 t t t < t t t 3 4 2.t r , 7 7 5 o < w 9 < o t t t $ , r 8 4., r t r e 3 9 t 9 o 7 9 e 3 e t 7 t , 8 t e r , 5 7 ",
"q h - q 6 5 < 6 r t t , t r t 3 4 2.p.2., e 7 5 o 5 t t < , t t t o $ 9 3 4.3 r p.r 3 e 7 9 9 o 7 7 e 7 e t e t , 8 t e r , 5 7 ",
"L L ; L 5 8 5 < w t t , t r r 3 e p.p.r , 9 5 5 , < t t 5 o t t t $ $ r 3 t 3 r t e , 7 9 7 7 , 7 9 e 7 r t e t $ 5 t r 7 , 5 5 ",
"u q = q 8 8 8 8 w t w < t r t 5 e p.p.p.< 9 9 5 $ 8 i.t < , p.t t $ , e < 4.4 r t e , 7 7 5 5 o 7 9 r e e t r t , < t 9 9 , 5 7 ",
"6 w * 9 q 0 * : t e t , r 7 t 3 e p.2.e , e e 3 5 $ t t 5 , r t t $ , t r t 3 r t e e , 9 5 7 , 9 7 e 8 0 I q q , 5 4.7 e $ 5 9 ",
"0 L = q L 9 : : t e t 5 r 9 r 3 e a.p.2., e 9 7 < , 6.t < o t 6.t $ , t r a.3 e p.e 3 3 t 5 7 , 7 5 9 3 8 a 8 q $ 5 t e e , 5 9 ",
"8 L = q f q : > t r 9 5 t t r 3 e l.p.e , e 9 e , < 6.r , @ e t t o $ w e t e r t e 3 3 t 5 7 < 7 8 9 6 8 a 9 r $ < t 9 r $ < 7 ",
"6 q $ 8 7 0 ; > t 9 e 5 t t t 3 e p.p.e $ e 7 7 < < 7.r , o t 6.t o , t e p.3 r a.e 3 < 9 5 7 o 9 7 e 8 0 _ r t $ 2 6.e t , 5 7 ",
"> L * > 8 > : > t r r 5  .M C , e p.2.e , e 7 5 , 5 6.e , @ t 6.t , , 7 9 t 3 e t r 3 5 r 5 7 o 9 6 r 8 e 4.e t , 8 t e t , 5 7 ",
"6 g * f q 0 : 8 t 9 r 7 t r r , e p.2.d , 9 e 7 < < t 9 < $ t ^ t $ , t t t e t p.r e 5 9 , 5 o 7 5 9 3 e t q r , 8 t e r , 5 t ",
"0 g % > > f : > r e r 5 t e C , e p.C e , C 9 3 < < 5.8 < , ! t t $ , w t a.e t e e e , 9 < 5 , 5 5 8 3 8 t w r $ 5 t 8 7 , 7 t ",
"> q % > q > : u 9 e r 7 r 9 e , e p.e e - M 7 5 < , 4.8 < = ! e t 5 $ w t t 8 t e e e , e , 5 , 7 5 e 8 e t r t $ < r 3 7 $ 5 t ",
"6 q + 6 > 6 ; 6 ..w f : ..f L : u K +.T = r r 8 , 3 ! 0 < + r a t o , r e p.e e r r 7 , 9 5 7 , 7 7 9 7 9 t e 9 , 5 t 3 8 $ 7 9 ",
"q q + 6 4 : ; 6 L w ..: g g f ; z 0.;.o.- a r 8 = 8 ^ 0 3 # a a t , o r e t e r e r 9 , r 7 w o 7 5 r 8 e r 5 < $ < t < e , 7 9 ",
"> u O : 6 0 : 6 L q L : T q L : S e.,.} ; h a 8 & 8  .q 6 # N a t , X e e t 3 r e t e < r 9 9 , 5 < 7 8 e t 5 $ < 5 w < 7 $ 5 7 ",
"q 6 O : 0 0 : 6 ..q L ; T f L : S q.,.+.- h r 8 * 0 1.0 < # N a 9 , , r e r e t e e e 3 r 8 7 , $ $ < 2 t t 5 , $ 5 r 8 7 $ 5 7 ",
"q 6 . : u q : > L q r < T h L : z 2.;.T $ r e 3 % e 1.0 < # a a w o o r e r 3 t r e 8 < r 5 9 o 5 $ < < 9 t 8 < , 5 t 3 9 $ < 5 ",
"q 6 X : > 0 : 6 h q e < T h I 1 A K +.c = e 9 < # 8 8.0 : + n i t , , r e t 3 r r e 3 , e 5 8 , 7 5 7 < e t 7 < , 5 r 3 r , 5 7 ",
"q 6 X : 0 u * > t 0 r < T L Q : A K _ ! $ e 9 , @ 8 7.8 - + a r t o o r r t 3 r e 9 5 , 9 5 7 o w 7 7 7 8 r 8 3 o 5 t 7 7 $ 5 7 ",
"6 q O : 6 : * > L 9 q < _ I Q 2 i :.+.! $ q 9 < @ e 7.3 = O a r t , $ r t t e r r e 5 , 9 5 7 , 7 5 9 7 8 r 9 9 o 5 t 7 w < 5 7 ",
"6 q O 2 0 6 = 8 q q h 2 _ I t : u :.S T * 6 7 r ; , r 8 < o e r t , o 8 8 t 8 e 6.e 3 , t 9 t , 9 7 5 3 7 e r r , , r e t , < 7 ",
"6 q O 6 3 > = > L 9 q < _ r r ; u 0...a ; 0 7 e ; < p e < o e r t , , r 9 6.8 e 6.r 3 , r 5 7 o 7 5 5 5 9 9 t r $ $ r 9 r , 5 7 ",
"7 q O : 6 3 - 6 q 0 q 2 T h w ; S K f h - q r e , < t 8 < X e 4.9 $ $ r e 6.3 r t r 9 5 e 5 e , 7 5 5 5 7 e r r $ < 7 9 t o 5 7 ",
"6 q O 6 6 u - 0 L 8 q 1 _ L q ; S H u L : c r 0 , 4 t 7 < X r t 8 , , t e 6.3 r r e 8 , r 8 e , 5 5 , 5 9 e t t < - 9 7 t o 5 7 ",
"L f O 6 q q 2 9 L 9 r < _ h t ; G K u u < t e 8 = 8 @.8 , . r 4.5 $ , t r 6.3 e r r 3 , t t t , 7 7 5 3 9 r t t , < 9 7 t , < 5 ",
"L L O 6 q u < 9 L q r 3 } a h : G K u L , r 9 3 , 9 6.0 < @ t t 8 o , r r t 8 8 r e 3 , t t t , 7 7 3 7 e t t t < , 9 5 9 , 5 5 ",
"T L # 8 q q : 8 h 8 r 1 +.a r - :.w.M t , q e 8 = q 7.q , o r t e $ , 9 r t 3 e r r e 3 t t t 5 r 7 5 8 r t t 9 < , 7 7 9 $ $ 7 ",
"L c O 6 q 0 : > q 9 r < T q L ; :.p.+.^ < q 9 8 = e i.q < @ t r t , , t r 6.3 8 e r e e t t t < 9 9 7 8 9 9 t 7 5 < 7 7 w o - 7 "
};
