/* XPM */
static char *_e57dbe5446544feb2e066384820216eOF75T2ndkRhpuHq5[] = {
/* columns rows colors chars-per-pixel */
"64 64 248 2 ",
"   c #5C1A15",
".  c #591815",
"X  c #631C14",
"o  c #6B1E14",
"O  c #681F19",
"+  c #731F15",
"@  c #741F18",
"#  c #6C2015",
"$  c #6D2119",
"%  c #732115",
"&  c #7B2315",
"*  c #74221A",
"=  c #7B241A",
"-  c #7C281B",
";  c #732B2C",
":  c #842614",
">  c #8A2714",
",  c #8B2B14",
"<  c #84291A",
"1  c #8C2C1B",
"2  c #842817",
"3  c #942B14",
"4  c #9C2D14",
"5  c #952D18",
"6  c #8C301D",
"7  c #93331B",
"8  c #9C331C",
"9  c #9B391B",
"0  c #9B3215",
"q  c #9A2B0F",
"w  c #A43314",
"e  c #AB3614",
"r  c #AD3A15",
"t  c #A43B1C",
"y  c #AC3C1B",
"u  c #A43519",
"i  c #B23C16",
"p  c #B33D19",
"a  c #B83C18",
"s  c #A43010",
"d  c #892D23",
"f  c #893224",
"g  c #9D3A22",
"h  c #973523",
"j  c #A43B23",
"k  c #A53925",
"l  c #AE411B",
"z  c #BB4216",
"x  c #B4441A",
"c  c #BB441B",
"v  c #BD491D",
"b  c #B34418",
"n  c #BF5404",
"m  c #AE4A2A",
"M  c #AB4426",
"N  c #B44522",
"B  c #BB4422",
"V  c #B44A24",
"C  c #BA4A24",
"Z  c #B34D2B",
"A  c #BA4D2B",
"S  c #B7452B",
"D  c #B5512E",
"F  c #BC522B",
"G  c #BE5325",
"H  c #AF5030",
"J  c #B65332",
"K  c #BA5534",
"L  c #BD5B3B",
"P  c #BE5934",
"I  c #B34E30",
"U  c #C2451B",
"Y  c #C34A1D",
"T  c #C94B1C",
"R  c #CA541E",
"E  c #C44C22",
"W  c #CB4E22",
"Q  c #C54D28",
"!  c #C55224",
"~  c #CB5425",
"^  c #CC5A26",
"/  c #C4552B",
"(  c #CC552A",
")  c #CC5B2B",
"_  c #C65A2C",
"`  c #D25322",
"'  c #D25D2B",
"]  c #D65926",
"[  c #C45B34",
"{  c #CA5D34",
"}  c #C25E3B",
"|  c #C65A34",
" . c #D35D32",
".. c #DA5D31",
"X. c #CE612C",
"o. c #D5632D",
"O. c #DB642C",
"+. c #D7692C",
"@. c #CD6234",
"#. c #CC633B",
"$. c #C9653B",
"%. c #D46333",
"&. c #DA6532",
"*. c #D56932",
"=. c #DB6B34",
"-. c #D56A3B",
";. c #DB6C3A",
":. c #D76539",
">. c #DB713B",
",. c #E1672E",
"<. c #E26B34",
"1. c #E26E39",
"2. c #E66935",
"3. c #E4733B",
"4. c #EA743B",
"5. c #E87739",
"6. c #F1773C",
"7. c #BF5D40",
"8. c #C56442",
"9. c #CD6A45",
"0. c #CC6B4B",
"q. c #C96744",
"w. c #D36C44",
"e. c #D26E4C",
"r. c #DA6D48",
"t. c #DC7442",
"y. c #D3724C",
"u. c #DA734D",
"i. c #DA7847",
"p. c #D46E51",
"a. c #D96D50",
"s. c #D57254",
"d. c #DA7455",
"f. c #D6755A",
"g. c #DB765A",
"h. c #D7795B",
"j. c #DB7A5C",
"k. c #DE7953",
"l. c #CD6E50",
"z. c #E47443",
"x. c #E57943",
"c. c #EC7B43",
"v. c #E87949",
"b. c #E27B58",
"n. c #DD7C62",
"m. c #E17E62",
"M. c #C05E41",
"N. c #ED803F",
"B. c #BC8774",
"V. c #BE8468",
"C. c #D5865E",
"Z. c #EA8248",
"A. c #F38649",
"S. c #F48A51",
"D. c #F08A5A",
"F. c #EC8853",
"G. c #C58A6D",
"H. c #CB8C6B",
"J. c #C58667",
"K. c #DC8966",
"L. c #CD906E",
"P. c #DB936C",
"I. c #CC8E72",
"U. c #C38D75",
"Y. c #D18E71",
"T. c #CD9274",
"R. c #CA947B",
"E. c #D49573",
"W. c #D59976",
"Q. c #DB9A75",
"!. c #D49A7B",
"~. c #DB9C7C",
"^. c #D79577",
"/. c #E38165",
"(. c #E4846A",
"). c #E9866C",
"_. c #E78A6E",
"`. c #E3966C",
"'. c #EA8C73",
"]. c #E78C74",
"[. c #E49C73",
"{. c #EC947C",
"}. c #E39B79",
"|. c #E69673",
" X c #F39576",
".X c #DBA17D",
"XX c #E6A27A",
"oX c #EBA47C",
"OX c #EAA378",
"+X c #F0A97F",
"@X c #C79B89",
"#X c #DC9D81",
"$X c #D59D83",
"%X c #C49990",
"&X c #EA9A80",
"*X c #DCA284",
"=X c #DCA58B",
"-X c #DDAA8D",
";X c #D7A68B",
":X c #DAA995",
">X c #D3A995",
",X c #E3A384",
"<X c #EBAA84",
"1X c #E3A68A",
"2X c #E4AA8D",
"3X c #ECAC8C",
"4X c #EAA685",
"5X c #F2AD85",
"6X c #EDB28E",
"7X c #EFB087",
"8X c #F2B28C",
"9X c #F4B287",
"0X c #E4AC92",
"qX c #EAAD92",
"wX c #E5AF99",
"eX c #E6B093",
"rX c #ECB294",
"tX c #ECB49B",
"yX c #E7B59C",
"uX c #F3B592",
"iX c #F4BA95",
"pX c #F2B69A",
"aX c #F3BB9C",
"sX c #F9BD9A",
"dX c #F9BA96",
"fX c #F1AB92",
"gX c #DDB2A6",
"hX c #D9ADA0",
"jX c #EDBAA3",
"kX c #E8B9A6",
"lX c #F3BCA4",
"zX c #F3BDA9",
"xX c #F9BEA2",
"cX c #F9C29E",
"vX c #F4C3AC",
"bX c #FCCCAC",
"nX c #F9C4A7",
"mX c #FAD1AE",
"MX c #F5C5B1",
"NX c #FACBB4",
"BX c #F6CCBB",
"VX c #F7CAB6",
"CX c #FCD3BA",
"ZX c #FBD6B8",
"AX c #EFD1B9",
"SX c #FAD4C3",
"DX c #F9D9C5",
"FX c #FCE2D0",
/* pixels */
"# $ & - & : , b N i r b z b _ _ v ^ ! ^ ( t u 3 5 , > , Z V Z Z m D m s.d.s.j.p.g.C.OX`.OX`.`.P.P.<X*X-X1X#X#X$X#XT.$X!.T.U.G.B.",
"X o % o o & : b c l r c b b ) { G ^ ! ^ ( 9 4 5 8 3 : > m C Z D m D m p.r.p.h.d.b.C.OX[.`.`.P.`.P.+X<X-X,X&X!.$X#XT.$X!.!.I.U.U.",
"  o o X X & - x c p i c z b _ ) ! R ! ^ ! 9 4 5 3 5 : : M F A m M D m s.a.e.h.d.d.C.OXOX`.K.K.`.~.<X,X*X#X~.#X$X#XI.$XT.E.I.R.U.",
"  X o   o % = V v i r Y Y b / ) / v ^ X.! 9 4 3 3 3 : > M F D m M D H f.a.d.h.d.k.C.OXOXOX`.`.`.Q.XX.X1X,X#X#X#X#XR.!.E.T.I.U.R.",
"  # O . X o % x z i i U Y b ) ^ / ! ! X./ t 4 5 0 3 > > l C J m m D H s.a.d.g.d.d.C.OX[.[.`.`.Q.P.Q.,X1X1X#X=X=X#XI.!.E.E.I.T.U.",
"  o O . o o = b Y b i v v b / ) ^ ~ ! +.%.9 4 4 0 3 > > M V A Z m I H s.a.d.h.d.d.C.oXOX[.[.[.[.P.4X1X1X1X#X1X$X#XG.!.!.E.I.I.G.",
"  % # . o + % b Y x i Y v b / ^ _ ~ ! =.%.9 4 u w 0 > > N x A Z I A H s.a.d.h.k.d.K.<XOXOX`.`.[.E.4X4X2XqX,X#X$X^.G.!.!.T.T.I.V.",
"X % * . o + - b Y p r Y Y c | ^ ~ ^ ' +.' t q 8 w 0 , 3 V V Z m m m J s.a.s.f.k.d.K.+XOXOX[.`.XXQ.4X,X1X3X#X1X0X^.H.!.!.!.T.I.G.",
"o & $   # % & x Y p b Y E b _ ' ~ ) o.=.o.t 4 w 4 q 3 3 V N Z V m J H s.p.f.f.g.b.K.OXOXXX[.[.XX}.,X4X1X1X~.1X1XQ.H.!.W.W.L.H.V.",
"+ & $ X # % - x v r p Y v b ) { ) ~ %.3.X.l 4 w u q 3 3 N V Z Z m J I s.e.d.j.g.g.K.+X+XXX[.[.XXQ.3X1XqX4X~.=X0X~.Y.!.W.T.L.H.V.",
"# & #   # + : b v e i z v x ) ) ~ ) @.<.@.t 0 w u 4 3 3 V F D Z m J J d.p.s.j.d.b.K.+XoXoXXX[.XXQ.qXqXqX1X~.1XwX,XP.$XE.E.L.H.V.",
"+ & o   o + : b c r r c v b ) ' ) o.*.5.;.t y w w u 3 3 C F Z Z m J K p.d.s.j.d.g.K.5XoXXXoX}.XX#XfXqX1XqX,XqXwX,XE.!.E.E.T.H.V.",
"% & o   % + : b c r r c B b ) ' ' ^ -.5.1.k w p i u q 4 C F Z m m J L p.f.p.g.k.b.K.5XoXOXoXoX4X#XpX2X1X1X,X2X-X.XE..XE.E.T.L.V.",
"% & o . o % : b c y r z C b _ %.^ ~ *.5.1.y u p i w 4 4 C / C Z m J L a.d.p.g.g.b.K.5XoX<XoX}.oX}.pX1X1X,X,X,X1X*XP.~.E.E.T.L.J.",
"+ & o . o + : b b y e i C x ) o.%.&.*.5.3.j e p p e 4 4 C F A m m J L a.d.p.s.f.j.P.9X5X<XXX}.4X}.rXqX2X,X4X,X2X*XE.!.E.W.!.L.V.",
"+ & X . # % : c b w w i E x ) o.=.%.=.3.3.N s p i i 4 4 x F F Z m J J d.d.p.s.f.k.K.9X<X<X<X}.<X~.fXqX1X4X,X~.=X*XE.~.E.W.W.L.J.",
"+ & X . O + > c b s 0 r v x ) &.+.' =.5.=.y r i p w s s N / D Z I K J s.g.a.l.b.j.P.5X5X<XXXoX<X#XeXtXqX3X,X#X1X*XE..XE.W.W.I.G.",
"& & X . o + 2 x i s w r v x { *.o.o.>.3.=.M i i p r u u S C V Z K J J s.g.f.p.f.j.K.9X9X9XXXXX<X,XuXqXqX1X,X#X1X,XE.~.!.W.!.I.G.",
"& % $   o + > V r w w p v b @.o.o.&.z.3.;.y i i a y w w A A V D P J J f.g.g.g.k.b.P.9X9X3XXXXX<X,XpXqXqX3X,X,X2X*X^.~.Q.E.!.I.G.",
"< & $ . o % 2 x r y r c v b *.o.o.&.%.3.;.y a z i a s u C A A Z A Z K a.g.m.f.j.g.P.8X8X7XXX4X3X,XrXqXqXqX,X,X2X,X^..X!.W.!.H.G.",
"< % $ . o = : l p y r i v b %.o.o.' _ 3.;.y a c a p u w x C F D m D K s.b.h.f.j.g.P.8X5X7X,X<X7XXXqXqX1XqX,X#X0X*XE..XW.W.T.H.G.",
"- # .   + + > l r b p x c b @.o.o.o.*.5.*.V a Y a r s e C V Z D J J J e.m.j.s.g.n.|.8X8X7X<X3X3X,XeXfX4XqX1X,X0X,XE.!.P.E.L.H.G.",
"& #   . o % , x i l r z v x %.*.+.o.t.c.%.N a E c p w e A G D D J D J p.m.j.h.j.j.|.8X8X7X3X3X3X,XpXfXqXuX2X1XtX,XE.~.E.E.L.H.H.",
"= % .   o % 6 l r y b c B x @.+.+.' ;.5.&.N c U c c e e Q F F D P J K f./.j.g.g.g.`.8X8X8X3X3X6X#XaXtX1X3X*XqXjX1XE..XQ.E.L.J.G.",
": *     o % > x r 5 j z U B @.*.=.o.=.4.=.N c E v a r a D / F D } D P f.n.j.n.g.j.K.iX7XiX3X6X6X,XaXpX1X1XqXtXjX1XE.#X!.E.H.H.G.",
"& * O # o * , C p 3 r z Y N @.+.&.' =.x.=.N c T U c i i F / K K | K L f.n.j.n.g.j.].uX7X8X8X6X3X1XtXpX1X3X3X2X0X*XE.~.!.Q.E.H.I.",
"& * O   o = , v r 0 t z E c %.=.=.^ ;.5.=.x U T E U a i K | F P M.L L f.n.n.f.g.n.`.uX8XuX<XrXuX,XtXpX3X1X3X0X0X*XW.~.W.Q.Y.H.G.",
"& % #   $ & , G r 0 y b v N -.+.&.' =.3.=.B U T U a a a / | F P 8.} L f.f.n.f.g.j._.dX8XiX3X6X3X,XtXpXpX2XfXeXtX,XQ.,X!.Q.Y.J.G.",
"= & * X * = , / j 0 w l ! v @.=.+.) =.3.=.C U T U U a a ( { F } 8.L 7.h.f.n.n.f.n.|.6XuXuX5X8XuX,XaXtXlXrXqXrXqX#XQ..X.XW.L.H.T.",
"= : % o @ @ 7 Z 7 0 u r Y v #.=.o.' *.=.*.N U T U U a a #. .| } 8.L L f.f.f.n.n.j.].uX3XuX3XuX4X~.tXtXlXtX3XeX0X*XQ.#XW.W.L.H.U.",
"= 2 @ X + @ 5 9 d 8 j t ! ~ @.+.%.o.=.3.+.C W T E a e a q.q.| } L L L f.f.f.n.n.h.P.dX,XrX8X8XJ.#XlXlXjXtXqXtXtX*X!.*XQ.E.I.H.U.",
"= < = O * + 6 7 f 1 u y o.&.-.+.o.*.3.1.+.C W W E a e e w.{ } 8.K K L f.n.n.f.n.j.`.dX8XuX8XuX}.*XlXlXjXpXrXtXwX2XQ.*X.XW.T.T.U.",
"< 2 = @ * - 7 7 ; 9 y u { >.*.:.-.>.>.<.&.E T ` T U i z { { } } L q.L s.j.f.m.n.b.|.dX6X8XqX3X7X-XzXlXtXtXtXwXjX1X~.-X*X.XT.T.B.",
"< < = + * & 6 9 f 9 j 9 f / *.+.m X.5.,.=.A ` ` T T a z | _ K L 8.$.$.h.K.f.n.n.g.Q.dXrX8X3X3X6X=XlXvXvXjXfXfXwX1X~.1X*XQ.E.E.U.",
"1 < * o $ % 7 l h g t 2 ; M @.+.w._ v.O.+.C R ` T T a a | { $.| 8.L L j.n.h.n.n.n.}.dXuXuX8X3XrX*XpXzXzXzXtXjX0X1X#X=X.XQ.T.L.U.",
"< 2 = O $ % , v A m y - ; y @.<.>.*.#./ o.! T ` T T c z | { { } q.M.L h.m.n.n.n.n.[.sXuXuX3X3XuX1XlXzXzXzXjXxXtX2X#X=X*XP.H.H.G.",
"2 < * o $ % , ! :.{ a f 2 b #.1.+.) 0 @.&.W ` ~ ` T z a { #.9.q.0.0.L g./.n.j.m.n.}.aXuXdX3XrXuX1XzXjXtXtXjXtXjX2X,X=X.XE.E.H.B.",
"= > = # # * , ^ z.r.W M b v -.=.%.~ >.S.=.( ` ` T U a a { { q.9.q.l.8.g.m.m.n.(.n.}.sXpXdXqXuXaX1XMXzXlXtXpXjXzX2X*X;X*XW.!.T.U.",
"= , * o # @ 2 ^ z.v.%.{ ' C *.=.=.^ =.N.Z./ ` ` T U c a { } 8.9.l.0.8.j.m.g.h.K.m.}.iXdXaXrXpXaX:XNXNXzXlXjXtXjXqX#X;X*X.X$XE.B.",
"= > - o * $ 2 ! ..t.-.4.! N ;.=.*.] =.Z.3.^ ` ` T U U z { %.8.9.l.$.8.g.n.m.n.n.(.}.iXiXsXaXaXlX-XvXMXzXzXjXjXqXeX,X-X*X*X;XR.B.",
"d d > O = = : / ~ ;.z.O.R v @.>.=.' <.5.c./ ` ` W U c U |  .#.w.y.8.M.K.j.n.j.K.m.~.uXdXxXuXnXMX,XzXnXzXVXjXjXpXtX=X-X-X*X!.R.B.",
"d 5 1 $ = = 2 ! ' ;.c.<.' ! ;.>.*.' O.5.x.( ` ` W z a c | w.9.9.y.q.7.f.j.b.n.n.m.}.uXxXdXxXxXNX1XMXzXBXBXzXkXlXtX=X0X=X*X#XE.B.",
"1 1 1 * 2 & , ) O.;.x.O.] ! -.+.%.] 3.5.x.' ] ` W U a a [ w.w.9.0.0.q.j.j.j.f.n.D.`.{.`.sXjX5XpX=XzXjXVXVXzXkXjXrX=X-X-X#X$XR.B.",
", > 1 * < : 6 ^ ..:.1.,.] ! ;.>.&.o.3.5.z.' ` W E U B U [ q.r.e.q.0.0.n./.d.f.n.g.`.`.R dXsXw.<XqXzXxXzXzXfXjXpXrX1XeX*X!.E.!.@X",
"< > f = < , 1 ) ] %.1.<.' ( ;.=.+.] 1.5.4.' ] ( W U B B } w.u.d.q.0.l.h./.g.h.j.d.*XdX+.<X9X*.<X0XMXlXlXaX1XqXtX<X=X6X*XE.T.$X@X",
"< > 7 2 < 1 7 ) ..{  .O...) -.3.=.' =.5.x.) ] W U E U U #.t.u.e.9.0.0.h.m.K.n.n.b.2XSX9X+X5X`.7X:XBXMXVXvXlXjXyX,X=XqX!.^.~.$XR.",
"d : 7 < < 5 6 X.o.) ] O.o.~ ;.3.=.o.;.5.4.) ] W E U a U #.-.w.0.9.q.0.n.m.b.n.n.g.0XDXaX9X9X<XsX;XSXVXBXMXnXMXkX2X1X0X.X~.#X=X@X",
"= > f < = 1 1 o.O.) ' O.O.~ =.5.=.' 3.5.x.] ..( U E c U #.-.9.0.e.L L n.).m.n.(.b.0XDXiX8X8XrXiX#XMXCXSXCXtXvXvX6X2X0X*X*X$X>X@X",
"- > d 2 * 5 7 o.o.%. .' O.~ >.3.&.&.1.5.4.%.] ` E U p B #.r.9.w.0.} J m.].m.K._.).eXmXdXpX9XaXsX=XSXSXMXvXjXlXvXwX0XeX,X.X-X>X@X",
"- 1 7 1 h k M o.O.%.' ] O.] w.4.+.o.z.5.c.%...W a Q B c #.w.$.w.0.M.J g.(.n.m.(.(.6XbXdXiX9XxXcX-XSXBXMXvXvXvXvXrX0X2X-X;X;X>X@X",
"= , k 5 h p M +.,.:.' O.O.' >.3.=.' >.5.c.:...W a W B c #.w.9.y.9.0.7.m.).n.(.'.).2XbXcXaX8XzXnX=XSXSXvXvXvXvXMXrX0XqX-X=X:X>X>X",
"= 7 k 5 7 j 9 X.<.:. .o.,.X.t.x.=.X.3.6.Z.*.O.` E W B Y [ w.i.y.0.e.M.(.).n.(.]._.1XnXcXcXuXbXnX*XBXSXVXVXvXvXMXeX0XeX-X=X:X>X>X",
"f h g h d g 7 X.<.:.:.O.,.' i.c.=.' x.6.c.:.2.W B W S Q | r.y.s.s.w.L /.).K.).]._.2XmXcXsXdXbXbX-XSXSXMXMXzXvXMXeX0XyX-X:XhXhX>X",
"d 8 k h d h 7 o.<.:. .O.,.' t.c.<.' x.6.c.:.2.` a ( p E | r.e.y.e.0.} (.(.(.'.'.'.3XmXnXnXdXVXbX:XSXDXzXMXzXlXvX3X2XeX-X:X:XhX@X",
"1 h k j d k 0 o.<.:. .O.<.' t.c.1.' x.c.Z.;.2.] p ( Q a #.u.e.e.q.0.q.(.(.(.'.'.'.qXZXnXnXcXNXbX:XSXDXBXBXvXlXvXrX;XeXeX:X:XhX%X",
"- h j j f k g *.2.:.&.O.<.%.x.c.4.' c.A.Z.-.2.( a | Q Q -.b.i.e.y.s.0.).'._.].{.{.6XmXbXnXnXCXbX;XDXDXMXNXvXlXlXuX*X:XyXyXkXgX@X",
"d k M g 1 g 9 *.2.z.&.,.<.O.t.A.4.=.Z.A.A.=.2.` E Q ( E $./.i.s.s.h.0./._._.].{.{.rXZXCXcXnXbXNX:XDXBXNXNXlXlXlX<X0XwXqXhXgXgX@X",
"< h M M 1 g M +.<.z.:.O.2.O.i.A.4.>.Z.A.S.>.1...E Q ( Q $.b.y.l.j.C.0.(.(._.'.&X{.qXZXmXcXnXCXmX=XDXDXVXMXxXaXlX<X=XjXeXyXgXhX@X",
"d h k M d k m &.4.z.:.<.4.%.Z.S.c.t.A.A.S.>.4.:.( Q ) ~ $.b.i.s.g.j.0.(.'._.].&X&XpXZXmXbXbXZXbX;XSXSXVXMXlXaXpX4X:XtXeXgXgXgX@X",
"h k k k 1 k m =.4.z.1.<.4.*.Z.S.6.x.S.A.S.>.4.;.,.(  .~ y.i.i.s.h.j.0._. X'.{.{.oXrXZXZXcXmXZXnX*XDXDXZXNXnXxXpXoX1XjX:XgXvXhX@X",
"g k k j 7 u M *.4.z.3.<.4.=.F.S.c.Z.S.A.S.x.z.2.2. .%.( w.y.y.s.g./.l.).'.&X'.&X{.2XZXZXmXmXZXmX;XAXDXAXCXMXxXaXE.;XvXyXvXgX>X%X",
"8 k k g f k j *.4.v.z.5.6.=.k.S.6.Z.S.N.S.z.c.z.r. .:. .e.i.w.y.0.f.l.m.'.'.'.&X|.eXZXZXmXZXDXmX$XDXFXAXBXkXlXlXE.;XvXgXgXkX>X%X",
"h k k h h m M o.4.v.3.4.6.>.i.S.N.Z.S.A.S.i.v.v.v.:.t.:.9.i.y.0.q.s.p.n.m.).m.&X[.6XZXZXmXZXDXZX>XFXFXCXBXvXMXMX4X0XvXyXgXyX>X%X",
"h h M 9 h S S ,.c.v.4.5.6.>.F.S.A.S. XA.S.i.v.F.v.:.r.%.q.u.i.s.0.g.g.m.m.'.).&X[.cXFXZXZXDXDXmXhXFXFXAXSXBXSXSXfX$XyX>XvXyXyX%X"
};
